nColumns=19
nRows=49
DataType=double
version=3
OpenSimVersion=4.1
endheader
time	ground_force_1_vx	ground_force_1_vy	ground_force_1_vz	ground_force_1_px	ground_force_1_py	ground_force_1_pz	ground_force_1_mx	ground_force_1_my	ground_force_1_mz	ground_force_2_vx	ground_force_2_vy	ground_force_2_vz	ground_force_2_px	ground_force_2_py	ground_force_2_pz	ground_force_2_mx	ground_force_2_my	ground_force_2_mz
0	-1.83091	277.104	27.3122	0.063405	0.006	-0.223936	0	-0.338192	0	0	0	0	0.739387	0	-0.376698	0	0	0
0.01	-25.1541	323.044	35.4462	0.0671165	0.006	-0.224549	0	0.0757537	0	0	0	0	0.739387	0	-0.376698	0	0	0
0.02	-63.6749	400.818	43.6554	0.0750847	0.006	-0.225572	0	0.537262	0	0	0	0	0.739387	0	-0.376698	0	0	0
0.03	-88.15	485.657	44.0216	0.0828144	0.006	-0.223972	0	0.937208	0	0	0	0	0.739387	0	-0.376698	0	0	0
0.04	-101.501	567.947	28.3508	0.0908179	0.006	-0.220302	0	0.411711	0	0	0	0	0.739387	0	-0.376698	0	0	0
0.05	-119.011	634.399	3.54004	0.0998072	0.006	-0.216142	0	-1.28089	0	0	0	0	0.739387	0	-0.376698	0	0	0
0.06	-142.845	676.315	-11.0321	0.108697	0.006	-0.212707	0	-2.06342	0	0	0	0	0.739387	0	-0.376698	0	0	0
0.07	-154.617	700.592	-12.0163	0.115457	0.006	-0.210979	0	-1.26157	0	0	0	0	0.739387	0	-0.376698	0	0	0
0.08	-155.357	724.258	-15.5868	0.12097	0.006	-0.209102	0	-0.76833	0	0	0	0	0.739387	0	-0.376698	0	0	0
0.09	-165.657	769.806	-37.8494	0.127748	0.006	-0.206268	0	-1.91725	0	0	0	0	0.739387	0	-0.376698	0	0	0
0.1	-180.374	833.954	-62.2253	0.13379	0.006	-0.203748	0	-2.69789	0	0	0	0	0.739387	0	-0.376698	0	0	0
0.11	-187.004	903.702	-71.4188	0.13876	0.006	-0.20255	0	-2.02953	0	0	0	0	0.739387	0	-0.376698	0	0	0
0.12	-191.002	974.213	-72.1054	0.142913	0.006	-0.202224	0	-1.43106	0	0	0	0	0.739387	0	-0.376698	0	0	0
0.13	-187.286	1032.65	-67.955	0.146407	0.006	-0.202133	0	-1.17099	0	0	0	0	0.739387	0	-0.376698	0	0	0
0.14	-181.183	1074.54	-59.4101	0.150033	0.006	-0.202011	0	-0.781716	0	0	0	0	0.739387	0	-0.376698	0	0	0
0.15	-177.406	1100.37	-54.8248	0.153799	0.006	-0.201675	0	-0.625726	0	0	0	0	0.739387	0	-0.376698	0	0	0
0.16	-170.372	1110.58	-53.772	0.157836	0.006	-0.200942	0	-0.323927	0	0	0	0	0.739387	0	-0.376698	0	0	0
0.17	-161.85	1106.14	-53.6804	0.161706	0.006	-0.200183	0	-0.241199	0	0	0	0	0.739387	0	-0.376698	0	0	0
0.18	-153.137	1090.77	-52.6962	0.165663	0.006	-0.199278	0	-0.443965	0	0	0	0	0.739387	0	-0.376698	0	0	0
0.19	-143.051	1068.13	-52.1622	0.169924	0.006	-0.198248	0	-0.699326	0	0	0	0	0.739387	0	-0.376698	0	0	0
0.2	-134.3	1040.54	-52.5207	0.17484	0.006	-0.196977	0	-0.869548	0	0	0	0	0.739387	0	-0.376698	0	0	0
0.21	-125.542	1005.98	-53.2074	0.180189	0.006	-0.195474	0	-0.99079	0	0	0	0	0.739387	0	-0.376698	0	0	0
0.22	-116.364	965.424	-53.0243	0.185937	0.006	-0.193904	0	-1.11503	0	0	0	0	0.739387	0	-0.376698	0	0	0
0.23	-107.117	922.729	-50.8575	0.191978	0.006	-0.192291	0	-1.25891	0	0	0	0	0.739387	0	-0.376698	0	0	0
0.24	-98.2819	878.677	-48.3932	0.198042	0.006	-0.190766	0	-1.42891	0	0	0	0	0.739387	0	-0.376698	0	0	0
0.25	-89.6454	834.702	-46.2341	0.203924	0.006	-0.189155	0	-1.57339	0	0	0	0	0.739387	0	-0.376698	0	0	0
0.26	-81.0623	793.915	-44.6472	0.209879	0.006	-0.187558	0	-1.63749	0	0	0	0	0.739387	0	-0.376698	0	0	0
0.27	-73.9594	757.08	-43.7622	0.215649	0.006	-0.186104	0	-1.66779	0	0	0	0	0.739387	0	-0.376698	0	0	0
0.28	-66.6885	726.013	-42.5644	0.221315	0.006	-0.184808	0	-1.70267	0	0	0	0	0.739387	0	-0.376698	0	0	0
0.29	-60.2112	700.455	-41.008	0.226854	0.006	-0.183775	0	-1.70641	0	0	0	0	0.739387	0	-0.376698	0	0	0
0.3	-54.9088	679.184	-38.5437	0.231898	0.006	-0.183053	0	-1.85108	0	0	0	0	0.739387	0	-0.376698	0	0	0
0.31	-50.56	662.491	-35.9802	0.236727	0.006	-0.182664	0	-2.06017	0	0	0	0	0.739387	0	-0.376698	0	0	0
0.32	-46.2494	649.399	-32.8217	0.240958	0.006	-0.182337	0	-2.35526	0	0	0	0	0.739387	0	-0.376698	0	0	0
0.33	-42.8848	640.503	-30.0598	0.244756	0.006	-0.182166	0	-2.56119	0	0	0	0	0.739387	0	-0.376698	0	0	0
0.34	-39.9246	634.766	-27.8244	0.248119	0.006	-0.182225	0	-2.8449	0	0	0	0	0.739387	0	-0.376698	0	0	0
0.35	-36.5295	631.561	-26.8249	0.250837	0.006	-0.18213	0	-3.13438	0	0	0	0	0.739387	0	-0.376698	0	0	0
0.36	-32.6309	631.073	-26.6418	0.253012	0.006	-0.182235	0	-3.32377	0	0	0	0	0.739387	0	-0.376698	0	0	0
0.37	-28.5568	631.683	-27.4506	0.254827	0.006	-0.182139	0	-3.52149	0	0	0	0	0.739387	0	-0.376698	0	0	0
0.38	-24.437	636.139	-28.8467	0.256154	0.006	-0.182143	0	-3.66248	0	0	0	0	0.739387	0	-0.376698	0	0	0
0.39	-19.0277	643.631	-30.6091	0.256957	0.006	-0.181979	0	-3.78887	0	0	0	0	0.739387	0	-0.376698	0	0	0
0.4	-11.4441	655.182	-32.7225	0.257115	0.006	-0.181859	0	-4.00039	0	0	0	0	0.739387	0	-0.376698	0	0	0
0.41	-2.63214	669.83	-34.3857	0.257045	0.006	-0.181825	0	-4.26667	0	0	0	0	0.739387	0	-0.376698	0	0	0
0.42	7.65991	690.292	-36.1252	0.256797	0.006	-0.181618	0	-4.64942	0	0	0	0	0.739387	0	-0.376698	0	0	0
0.43	19.8059	720.856	-38.1012	0.256558	0.006	-0.181644	0	-5.0268	0	0	0	0	0.739387	0	-0.376698	0	0	0
0.44	32.753	761.52	-40.9164	0.256466	0.006	-0.181631	0	-5.42314	0	0	0	0	0.739387	0	-0.376698	0	0	0
0.45	44.4488	808.136	-44.0292	0.256913	0.006	-0.181667	0	-5.91615	0	0	0	0	0.739387	0	-0.376698	0	0	0
0.46	54.4815	858.383	-47.8592	0.25784	0.006	-0.181723	0	-6.32246	0	0	0	0	0.739387	0	-0.376698	0	0	0
0.47	62.0041	908.829	-52.6199	0.259307	0.006	-0.181574	0	-6.64689	0	0	0	0	0.739387	0	-0.376698	0	0	0
0.48	70.2209	955.688	-57.5104	0.261089	0.006	-0.181451	0	-6.78234	0	0	0	0	0.739387	0	-0.376698	0	0	0
